<svg class="arrow" width="174" height="132" viewBox="0 0 174 132" fill="none"
                                xmlns="http://www.w3.org/2000/svg">
                                <g clip-path="url(#clip0_24_454)">
                                    <path class="path"
                                        d="M-20.907 -8.75513C-6.74601 -1.75384 7.24053 5.60409 20.7054 14.3363C34.9714 23.588 49.2894 34.6245 59.1669 50.1854C62.2249 55.0022 65.8149 61.3917 65.7404 67.7272C65.6933 71.6968 61.3389 74.9606 58.5694 75.9237C53.7715 77.5934 47.5939 76.6461 43.0324 74.4884C39.4921 72.8145 33.3629 68.3331 33.3629 63.1028C33.3629 53.9481 50.028 52.6545 54.468 52.0671C76.5833 49.1411 133.228 63.8399 154.442 71.0255"
                                        stroke="#1C1D20" stroke-width="2" stroke-linecap="round" />
                                    <path class="head"
                                        d="M157.832 73.0937L147.259 69.6885L147.819 67.9536L158.392 71.3588L155.236 65.2052L156.86 64.3741L161.438 73.2974L152.502 77.8685L151.67 76.246L157.832 73.0937Z"
                                        fill="#1C1D20" />
                                </g>
                                <defs>
                                    <clipPath id="clip0_24_454">
                                        <rect width="174" height="132" fill="white" />
                                    </clipPath>
                                </defs>
                            </svg>